
		<svg id="svg-generator" version="1.1" xmlns="http://www.w3.org/2000/svg" xmlns:xlink="http://www.w3.org/1999/xlink" x="0px" y="0px" width="200px" height="200px" viewBox="0 0 200 200" enable-background="new 0 0 200 200" xml:space="preserve"><rect class="indentityContainer" x="50" y="50" width="100" height="100" transform="rotate(0)" style="stroke: rgb(0, 0, 0); stroke-width: 3; opacity: 1; fill: rgb(7, 196, 0);"></rect><path class="indentityContainer" id="arcManual" d="M-28,-3.429011037612589e-15A28,28,0,1,1,28,0L25,0A25,25,0,1,0,-25,-3.061616997868383e-15Z" transform="translate(100, 85)" style="fill: rgb(0, 0, 0); opacity: 1;"></path><line class="indentityContainer" x1="73.5" y1="85" x2="73.5" y2="125" style="stroke: rgb(0, 0, 0); stroke-width: 3; opacity: 1;"></line><line class="indentityContainer" x1="100" y1="60" x2="100" y2="125" style="stroke: rgb(0, 0, 0); stroke-width: 3; opacity: 1;"></line><line class="indentityContainer" x1="126.5" y1="85" x2="126.5" y2="125" style="stroke: rgb(0, 0, 0); stroke-width: 3; opacity: 1;"></line><line class="indentityContainer" x1="87.5" y1="20" x2="112.5" y2="45" style="stroke: rgb(0, 0, 0); stroke-width: 7; opacity: 1;"></line><line class="indentityContainer" x1="87.5" y1="45" x2="112.5" y2="20" style="stroke: rgb(0, 0, 0); stroke-width: 7; opacity: 1;"></line><line class="indentityContainer" x1="55.5" y1="20" x2="80.5" y2="45" style="stroke: rgb(0, 0, 0); stroke-width: 7; opacity: 1;"></line><line class="indentityContainer" x1="55.5" y1="45" x2="80.5" y2="20" style="stroke: rgb(0, 0, 0); stroke-width: 7; opacity: 1;"></line><line class="indentityContainer" x1="119.5" y1="20" x2="144.5" y2="45" style="stroke: rgb(0, 0, 0); stroke-width: 7; opacity: 1;"></line><line class="indentityContainer" x1="119.5" y1="45" x2="144.5" y2="20" style="stroke: rgb(0, 0, 0); stroke-width: 7; opacity: 1;"></line></svg>
	